<svg id="svg" xmlns="http://www.w3.org/2000/svg" xmlns:xlink="http://www.w3.org/1999/xlink" width="400" height="340.174672489083" viewBox="0, 0, 400,340.174672489083"><g id="svgg"><path id="path0" d="M187.773 6.576 C 80.536 15.976,11.096 121.938,46.067 222.812 L 47.542 227.065 29.732 227.179 L 11.923 227.293 24.536 245.533 L 37.148 263.773 24.565 281.996 L 11.981 300.218 57.323 300.330 L 102.665 300.441 107.337 303.664 C 163.559 342.449,236.990 342.467,293.045 303.709 L 297.772 300.441 343.132 300.330 L 388.493 300.218 375.902 281.994 L 363.311 263.770 375.913 245.531 L 388.514 227.293 370.708 227.179 L 352.903 227.065 354.205 223.497 C 368.612 184.020,365.679 136.158,346.460 97.116 C 317.230 37.737,252.647 0.889,187.773 6.576 M212.054 15.726 C 250.973 18.782,288.027 36.652,313.401 64.604 L 317.938 69.601 315.847 70.192 C 312.038 71.268,310.287 71.577,307.889 71.597 C 302.813 71.637,300.098 74.269,296.288 82.841 C 293.668 88.735,292.175 90.943,290.164 91.897 C 287.749 93.043,287.455 92.698,287.146 88.348 C 285.455 64.586,284.956 62.448,279.822 56.959 C 275.986 52.859,275.606 52.687,246.551 41.883 C 237.846 38.645,239.768 38.524,219.069 43.620 C 209.422 45.996,200.380 48.193,198.977 48.503 C 194.760 49.433,194.638 53.301,198.705 57.128 C 201.169 59.446,201.270 56.935,197.774 80.349 C 196.357 89.836,195.198 98.003,195.197 98.497 C 195.195 100.517,194.336 100.920,188.623 101.578 C 170.635 103.652,167.984 104.972,166.331 112.681 C 165.900 114.689,165.751 114.896,164.912 114.641 C 161.264 113.532,146.221 109.879,140.797 108.785 C 106.885 101.944,79.159 103.066,60.935 112.017 C 56.223 114.331,56.331 114.400,58.076 110.175 C 80.429 56.062,130.399 20.511,191.048 15.573 C 195.209 15.234,206.873 15.319,212.054 15.726 M241.812 44.651 C 244.196 47.643,243.293 49.782,239.647 49.782 C 235.695 49.782,234.989 45.982,238.729 44.838 C 241.443 44.008,241.307 44.017,241.812 44.651 M233.321 47.573 C 235.372 51.016,235.979 50.739,220.453 53.440 C 205.939 55.966,206.036 55.965,203.205 53.508 C 201.021 51.612,200.497 51.860,212.496 49.113 C 218.232 47.800,224.400 46.352,226.201 45.895 C 231.444 44.563,231.542 44.587,233.321 47.573 M254.371 57.205 C 255.610 57.205,256.338 58.462,255.792 59.659 C 255.229 60.895,253.261 60.872,252.003 59.613 C 251.155 58.766,252.069 56.547,253.103 56.944 C 253.477 57.088,254.048 57.205,254.371 57.205 M259.986 60.160 C 260.493 61.939,260.284 62.153,258.490 61.688 C 255.772 60.983,255.498 58.336,258.171 58.597 C 259.340 58.710,259.649 58.976,259.986 60.160 M233.998 60.058 C 235.919 61.674,236.353 63.407,235.804 67.274 C 235.168 71.762,235.947 71.679,223.377 68.597 C 211.453 65.673,211.390 65.646,212.458 64.016 C 213.711 62.104,214.981 61.685,223.166 60.490 C 227.597 59.843,231.305 59.232,231.405 59.133 C 231.843 58.698,232.778 59.031,233.998 60.058 M264.083 60.383 C 264.383 60.616,264.629 61.273,264.629 61.844 C 264.629 63.257,262.903 63.408,261.463 62.120 C 259.557 60.416,262.017 58.785,264.083 60.383 M268.668 61.431 C 269.225 61.759,269.028 63.770,268.416 64.005 C 267.106 64.508,265.502 63.396,265.502 61.985 C 265.502 60.667,266.942 60.415,268.668 61.431 M254.338 61.561 C 255.579 62.033,255.887 63.730,254.884 64.562 C 253.761 65.494,251.092 64.348,251.092 62.934 C 251.092 61.050,251.992 60.669,254.338 61.561 M272.676 62.695 C 273.455 63.474,273.529 64.125,272.945 65.050 C 272.500 65.753,269.432 64.656,269.432 63.794 C 269.432 63.178,270.719 62.009,271.397 62.009 C 271.723 62.009,272.299 62.318,272.676 62.695 M259.139 63.132 C 260.010 64.002,260.010 64.818,259.140 65.688 C 257.969 66.859,255.731 65.131,256.183 63.405 C 256.483 62.256,258.112 62.105,259.139 63.132 M263.673 65.611 C 263.822 67.419,263.360 67.647,261.374 66.742 C 259.332 65.812,259.964 63.624,262.211 63.844 C 263.400 63.960,263.551 64.143,263.673 65.611 M275.983 65.747 C 275.983 66.080,275.639 66.204,275.102 66.064 C 274.000 65.775,273.645 65.223,273.988 64.330 C 274.298 63.522,275.983 64.719,275.983 65.747 M268.203 65.618 C 269.230 67.235,268.164 68.447,266.156 67.943 C 264.251 67.464,264.548 64.416,266.463 64.799 C 267.232 64.953,268.015 65.321,268.203 65.618 M254.051 66.182 C 255.981 67.534,254.738 69.285,252.188 68.807 C 250.870 68.560,250.655 68.348,250.655 67.302 C 250.655 65.337,252.144 64.846,254.051 66.182 M272.263 66.648 C 273.351 67.737,272.954 69.240,271.614 69.100 C 269.758 68.905,269.432 68.631,269.432 67.263 C 269.432 65.725,270.999 65.385,272.263 66.648 M258.920 67.505 C 259.594 68.137,258.972 70.306,258.116 70.306 C 256.089 70.306,254.516 67.900,255.742 66.675 C 256.141 66.275,258.176 66.807,258.920 67.505 M212.584 68.234 C 212.742 69.613,211.946 70.112,210.261 69.689 C 208.986 69.369,208.879 68.731,209.910 67.592 C 210.983 66.407,212.413 66.750,212.584 68.234 M275.744 67.319 C 277.596 68.163,277.351 70.514,275.450 70.134 C 273.602 69.764,273.193 69.295,273.534 67.936 C 273.850 66.675,274.148 66.592,275.744 67.319 M216.347 67.675 C 217.568 68.139,217.992 70.575,216.921 70.972 C 214.754 71.777,212.476 69.105,214.234 67.819 C 215.165 67.139,214.972 67.152,216.347 67.675 M262.474 68.138 C 263.310 68.585,263.692 70.923,262.991 71.308 C 262.193 71.746,259.825 70.688,259.825 69.892 C 259.825 67.816,260.740 67.210,262.474 68.138 M220.852 68.834 C 222.809 69.359,222.232 72.231,220.234 71.907 C 218.146 71.568,217.773 71.143,218.314 69.722 C 218.770 68.522,219.168 68.383,220.852 68.834 M267.603 70.852 C 267.747 72.593,267.676 72.640,265.557 72.216 C 263.252 71.755,263.502 68.886,265.830 69.078 C 267.378 69.207,267.475 69.303,267.603 70.852 M253.191 70.090 C 254.012 70.327,254.174 70.635,254.064 71.762 C 253.915 73.301,251.592 73.611,250.250 72.271 C 249.384 71.406,250.314 69.279,251.423 69.588 C 251.841 69.704,252.637 69.930,253.191 70.090 M226.570 70.569 C 227.122 70.956,227.465 71.543,227.336 71.879 C 227.207 72.215,227.269 72.489,227.474 72.489 C 227.678 72.489,227.955 72.072,228.088 71.562 C 228.528 69.880,231.878 71.262,231.878 73.125 C 231.878 74.569,231.634 74.628,228.690 73.899 C 227.201 73.530,225.246 73.054,224.345 72.842 C 222.763 72.468,222.070 71.089,222.999 70.160 C 223.531 69.627,225.556 69.860,226.570 70.569 M271.691 70.592 C 272.865 71.655,272.699 72.856,271.330 73.200 C 269.440 73.674,268.058 72.241,268.727 70.499 C 269.052 69.650,270.707 69.702,271.691 70.592 M210.670 70.732 C 211.776 71.152,212.425 74.236,211.408 74.236 C 208.804 74.236,207.657 73.232,208.126 71.363 C 208.415 70.212,208.953 70.078,210.670 70.732 M257.671 71.194 C 259.140 71.981,258.818 74.236,257.236 74.236 C 256.022 74.236,254.585 73.292,254.585 72.494 C 254.585 70.856,255.959 70.278,257.671 71.194 M276.430 71.847 C 276.854 72.358,276.869 72.769,276.493 73.594 C 275.575 75.608,272.548 74.492,273.088 72.339 C 273.426 70.992,275.471 70.692,276.430 71.847 M216.721 72.441 C 217.539 73.259,216.668 75.109,215.465 75.109 C 213.248 75.109,211.738 73.130,212.991 71.868 C 213.403 71.455,216.157 71.878,216.721 72.441 M234.855 73.474 C 234.947 74.279,234.755 74.769,234.275 74.953 C 233.255 75.345,232.286 74.219,232.603 73.009 C 232.989 71.531,234.671 71.878,234.855 73.474 M262.616 72.722 C 263.294 73.400,262.800 75.546,261.967 75.546 C 260.514 75.546,259.389 74.598,259.389 73.373 C 259.389 71.851,261.350 71.456,262.616 72.722 M100.504 80.896 L 91.620 89.270 92.579 90.046 C 93.660 90.922,93.206 91.279,104.552 80.623 L 109.607 75.875 114.678 80.623 C 126.288 91.495,125.557 90.919,126.633 90.048 L 127.589 89.274 123.947 85.797 L 120.306 82.321 120.087 78.606 L 119.869 74.891 118.256 74.757 L 116.644 74.623 116.510 76.612 L 116.376 78.602 113.030 75.546 C 111.190 73.864,109.618 72.496,109.537 72.505 C 109.455 72.514,105.391 76.290,100.504 80.896 M220.277 72.915 C 221.498 73.379,221.922 75.815,220.852 76.212 C 218.813 76.969,216.637 74.671,217.924 73.120 C 218.543 72.374,218.797 72.352,220.277 72.915 M278.435 74.481 C 278.302 74.826,277.991 75.109,277.743 75.109 C 277.240 75.109,277.123 73.241,277.596 72.768 C 278.033 72.331,278.721 73.735,278.435 74.481 M266.158 73.363 C 267.744 73.966,267.583 76.136,265.938 76.329 C 264.170 76.535,263.176 75.543,263.719 74.114 C 264.217 72.802,264.475 72.723,266.158 73.363 M225.188 74.066 C 227.196 74.605,226.953 77.293,224.897 77.293 C 222.925 77.293,222.271 76.864,222.271 75.572 C 222.271 73.792,222.918 73.458,225.188 74.066 M253.021 74.374 C 254.746 75.635,252.939 77.804,250.791 77.048 C 249.564 76.617,249.065 75.595,249.513 74.429 C 249.815 73.641,251.973 73.608,253.021 74.374 M271.092 74.760 C 272.338 76.006,271.726 77.354,269.978 77.210 C 268.483 77.086,268.329 76.951,268.204 75.655 C 268.056 74.119,269.884 73.552,271.092 74.760 M318.771 100.328 C 318.763 128.561,318.824 127.851,316.514 126.886 C 315.665 126.531,313.420 126.050,311.524 125.816 L 308.079 125.392 305.568 122.728 C 302.727 119.715,302.761 119.883,303.723 113.425 C 306.664 93.698,313.735 74.236,317.963 74.236 C 318.749 74.236,318.777 75.153,318.771 100.328 M210.371 74.948 C 211.077 75.137,211.352 75.534,211.347 76.361 C 211.330 79.261,207.749 79.199,207.506 76.295 C 207.361 74.558,207.926 74.292,210.371 74.948 M325.665 79.585 C 343.674 104.686,353.535 133.996,354.461 165.175 L 354.717 173.799 347.555 173.805 C 340.750 173.810,329.398 174.581,322.271 175.523 C 320.469 175.761,318.723 175.962,318.390 175.969 C 318.057 175.976,318.677 175.028,319.769 173.861 C 322.970 170.439,324.764 165.986,325.796 158.902 C 326.089 156.888,326.584 154.847,326.896 154.367 C 327.871 152.865,327.198 138.999,326.137 138.721 C 325.694 138.606,325.209 138.148,325.058 137.705 C 324.907 137.262,324.232 135.622,323.558 134.061 L 322.332 131.223 322.129 102.948 C 322.018 87.396,321.975 74.672,322.033 74.672 C 322.092 74.672,323.726 76.883,325.665 79.585 M230.922 76.965 C 231.071 78.769,230.462 79.039,228.194 78.177 C 225.962 77.328,226.784 74.991,229.242 75.198 C 230.684 75.319,230.795 75.436,230.922 76.965 M257.579 75.498 C 258.895 76.332,257.742 78.693,256.182 78.359 C 254.306 77.957,254.148 77.827,254.148 76.685 C 254.148 75.122,255.985 74.487,257.579 75.498 M275.655 75.841 C 276.273 76.205,276.013 78.603,275.356 78.603 C 273.606 78.603,272.489 77.742,272.489 76.395 C 272.489 75.077,273.929 74.825,275.655 75.841 M216.195 76.683 C 217.067 77.734,215.501 79.622,214.048 79.272 C 212.105 78.804,211.359 76.894,212.751 75.950 C 213.355 75.541,215.653 76.030,216.195 76.683 M312.240 76.396 C 310.776 79.130,299.416 92.405,298.134 92.879 C 293.098 94.742,293.318 93.652,299.603 85.590 C 307.343 75.660,307.249 75.742,311.042 75.605 C 312.551 75.551,312.655 75.620,312.240 76.396 M233.986 77.459 C 234.178 79.134,233.413 79.888,232.473 78.948 C 231.987 78.463,231.856 77.876,232.055 77.082 C 232.450 75.511,233.793 75.772,233.986 77.459 M261.601 76.435 C 263.176 77.277,262.366 79.476,260.480 79.476 C 259.305 79.476,258.515 78.680,258.515 77.496 C 258.515 75.930,259.819 75.481,261.601 76.435 M278.353 76.669 C 279.454 77.769,279.258 79.568,278.057 79.397 C 277.053 79.255,276.541 77.869,277.026 76.606 C 277.329 75.815,277.508 75.824,278.353 76.669 M220.675 77.705 C 221.518 78.549,220.575 80.349,219.289 80.349 C 217.251 80.349,216.302 79.372,216.953 77.944 C 217.505 76.731,219.568 76.599,220.675 77.705 M266.485 77.588 C 267.091 77.945,266.819 79.817,266.121 80.084 C 264.118 80.853,263.319 80.421,263.319 78.568 C 263.319 76.805,264.522 76.433,266.485 77.588 M224.590 78.363 C 226.334 78.746,226.207 81.506,224.454 81.334 C 222.558 81.149,221.397 80.783,221.397 80.369 C 221.397 79.340,222.301 77.764,222.803 77.919 C 223.111 78.015,223.915 78.214,224.590 78.363 M252.757 78.730 C 253.247 79.125,253.161 81.046,252.629 81.578 C 251.926 82.281,248.908 80.621,248.908 79.532 C 248.908 77.649,250.902 77.233,252.757 78.730 M82.009 78.928 C 79.233 82.140,76.776 86.580,77.893 86.366 C 79.329 86.092,79.364 85.931,77.291 89.139 C 75.310 92.204,75.307 92.272,77.205 91.728 L 78.588 91.332 77.005 93.810 C 76.135 95.173,74.964 96.965,74.404 97.792 C 73.844 98.619,73.458 99.368,73.547 99.457 C 73.699 99.609,78.093 98.912,80.240 98.395 C 81.189 98.167,81.223 98.265,81.223 101.263 L 81.223 104.367 82.533 104.367 L 83.843 104.367 83.843 101.263 C 83.843 98.265,83.876 98.167,84.825 98.395 C 86.879 98.889,91.363 99.612,91.504 99.471 C 91.585 99.390,90.582 97.681,89.275 95.672 C 86.573 91.517,86.448 91.116,88.052 91.726 C 89.729 92.364,89.706 92.126,87.802 89.180 C 86.111 86.565,86.098 86.513,87.084 86.380 C 88.035 86.252,87.945 86.029,85.380 82.204 C 82.872 78.461,82.622 78.219,82.009 78.928 M103.290 84.099 L 96.943 90.076 96.943 96.348 L 96.943 102.620 101.965 102.620 L 106.987 102.620 106.987 97.380 L 106.987 92.140 109.607 92.140 L 112.227 92.140 112.227 97.380 L 112.227 102.620 117.249 102.620 L 122.271 102.620 122.271 96.362 L 122.271 90.104 115.954 84.113 L 109.637 78.122 103.290 84.099 M270.472 78.729 C 271.863 79.746,270.965 81.813,269.279 81.476 C 267.490 81.118,267.144 80.701,267.490 79.321 C 267.814 78.031,269.154 77.765,270.472 78.729 M136.158 79.365 C 133.381 82.577,130.924 87.017,132.041 86.803 C 133.478 86.529,133.512 86.368,131.439 89.576 C 129.458 92.641,129.456 92.709,131.353 92.165 L 132.736 91.768 131.154 94.247 C 130.283 95.610,129.113 97.401,128.553 98.228 C 127.992 99.055,127.607 99.805,127.695 99.893 C 127.848 100.046,132.242 99.349,134.389 98.832 C 135.338 98.603,135.371 98.701,135.371 101.699 L 135.371 104.803 136.681 104.803 L 137.991 104.803 137.991 101.699 C 137.991 98.701,138.025 98.603,138.974 98.832 C 141.027 99.326,145.512 100.049,145.652 99.908 C 145.733 99.827,144.730 98.118,143.424 96.109 C 140.721 91.954,140.597 91.553,142.200 92.163 C 143.877 92.800,143.854 92.563,141.950 89.617 C 140.260 87.002,140.246 86.950,141.233 86.817 C 142.184 86.688,142.093 86.466,139.529 82.640 C 137.020 78.898,136.771 78.656,136.158 79.365 M210.239 79.623 C 212.181 81.044,209.629 83.713,207.446 82.545 C 206.573 82.078,206.181 79.991,206.841 79.330 C 207.339 78.833,209.401 79.011,210.239 79.623 M229.597 79.719 C 230.131 80.093,230.568 80.682,230.568 81.029 C 230.568 81.839,230.900 81.826,231.741 80.985 C 232.657 80.069,233.378 80.395,233.544 81.802 C 233.682 82.964,232.154 83.537,231.272 82.655 C 231.099 82.482,230.317 82.396,229.534 82.463 C 227.494 82.639,225.897 81.296,226.595 79.993 C 227.195 78.870,228.249 78.774,229.597 79.719 M256.532 79.469 C 257.560 79.860,257.784 81.484,256.946 82.476 C 256.479 83.028,253.712 81.969,253.712 81.239 C 253.712 79.125,254.434 78.672,256.532 79.469 M274.426 79.465 C 276.307 80.181,276.035 82.533,274.071 82.533 C 272.139 82.533,271.313 81.579,271.979 80.118 C 272.525 78.920,272.800 78.847,274.426 79.465 M214.600 80.339 C 216.933 81.226,215.526 84.149,212.994 83.674 C 211.199 83.338,210.734 82.539,211.436 80.999 C 211.966 79.836,212.812 79.659,214.600 80.339 M260.452 80.339 C 262.202 81.004,262.078 83.406,260.293 83.406 C 258.296 83.406,257.311 82.220,258.094 80.757 C 258.609 79.795,258.890 79.745,260.452 80.339 M279.226 81.771 C 279.776 83.346,279.190 83.924,277.500 83.473 C 275.343 82.896,275.441 80.178,277.610 80.429 C 278.458 80.527,278.927 80.917,279.226 81.771 M220.087 82.773 C 220.087 84.543,219.609 84.887,217.657 84.521 C 214.998 84.022,215.823 80.820,218.529 81.136 C 219.967 81.304,220.087 81.430,220.087 82.773 M265.668 81.786 C 267.072 82.812,266.167 84.834,264.467 84.469 C 262.604 84.070,262.445 83.939,262.445 82.798 C 262.445 81.131,264.073 80.619,265.668 81.786 M224.672 84.055 C 224.672 86.081,223.772 86.538,222.031 85.397 C 220.079 84.119,220.976 81.951,223.360 82.186 C 224.578 82.305,224.672 82.440,224.672 84.055 M251.557 82.548 C 252.457 83.030,252.750 85.323,251.972 85.803 C 251.152 86.310,248.508 85.519,248.244 84.687 C 247.627 82.743,249.573 81.486,251.557 82.548 M270.470 82.990 C 270.681 83.184,270.726 83.848,270.571 84.466 C 269.976 86.836,266.812 85.583,266.812 82.978 C 266.812 82.035,269.439 82.043,270.470 82.990 M230.067 84.044 C 231.343 85.285,230.259 86.521,228.020 86.376 C 225.906 86.240,225.259 85.354,225.953 83.545 C 226.258 82.750,229.089 83.093,230.067 84.044 M255.648 83.395 C 256.821 83.841,257.281 86.094,256.321 86.688 C 255.101 87.442,253.275 86.414,253.275 84.973 C 253.275 82.901,253.666 82.642,255.648 83.395 M209.772 84.300 C 210.510 84.979,209.654 86.900,208.616 86.894 C 205.998 86.878,205.198 86.036,205.946 84.087 C 206.224 83.361,208.912 83.511,209.772 84.300 M274.966 83.991 C 275.618 84.643,274.480 86.462,273.424 86.456 C 271.631 86.446,271.016 85.861,271.360 84.491 C 271.638 83.385,274.029 83.053,274.966 83.991 M233.108 85.702 C 233.226 86.732,233.089 86.900,232.125 86.900 C 231.242 86.900,231.004 86.683,231.004 85.881 C 231.004 83.865,232.877 83.706,233.108 85.702 M260.917 86.026 C 260.917 87.779,259.453 88.337,257.877 87.184 C 256.467 86.153,257.603 84.178,259.501 84.361 C 260.802 84.487,260.917 84.622,260.917 86.026 M279.367 85.245 C 280.707 86.353,279.383 88.643,277.873 87.830 C 277.434 87.593,276.730 87.294,276.310 87.163 C 275.795 87.004,275.546 86.480,275.546 85.555 C 275.546 84.121,277.787 83.940,279.367 85.245 M214.629 86.245 C 214.629 87.380,214.455 87.572,213.319 87.683 C 211.522 87.859,210.283 86.900,210.682 85.642 C 211.218 83.952,214.629 84.472,214.629 86.245 M219.115 86.146 C 219.693 86.604,219.424 88.217,218.690 88.690 C 218.073 89.087,216.249 88.628,215.670 87.930 C 214.189 86.146,217.166 84.604,219.115 86.146 M264.658 85.605 C 266.095 86.374,265.809 88.646,264.276 88.646 C 262.405 88.646,261.451 87.754,261.806 86.337 C 262.126 85.064,263.154 84.800,264.658 85.605 M269.541 86.758 C 270.257 87.179,269.886 89.520,269.105 89.514 C 267.029 89.497,266.376 89.008,266.376 87.469 C 266.376 85.989,267.721 85.687,269.541 86.758 M223.763 86.728 C 224.504 87.012,224.674 88.496,224.075 89.442 C 223.588 90.209,220.679 89.680,220.326 88.760 C 219.626 86.937,221.469 85.847,223.763 86.728 M251.634 87.183 C 252.170 87.515,252.013 89.439,251.419 89.808 C 249.739 90.854,247.326 89.355,247.780 87.547 C 248.062 86.419,250.089 86.228,251.634 87.183 M305.620 91.376 C 300.058 107.237,302.175 105.384,288.351 106.488 C 276.611 107.426,277.166 107.287,275.994 109.585 L 275.144 111.250 265.192 111.425 L 255.240 111.599 252.402 112.997 C 250.841 113.765,248.483 114.983,247.162 115.703 C 244.271 117.278,242.156 117.403,240.749 116.081 C 238.927 114.369,239.385 113.318,242.231 112.681 C 245.434 111.965,246.861 110.502,247.511 107.269 C 248.740 101.146,249.335 100.708,257.642 99.808 C 261.124 99.431,268.504 98.626,274.042 98.018 C 279.579 97.411,285.376 96.932,286.924 96.953 C 288.472 96.975,291.015 97.018,292.576 97.048 C 298.310 97.157,299.157 96.830,301.541 93.584 C 304.286 89.845,306.962 86.463,307.175 86.463 C 307.267 86.463,306.567 88.674,305.620 91.376 M274.491 88.411 C 274.812 88.846,275.108 88.909,275.409 88.609 C 276.274 87.743,279.913 89.030,279.913 90.201 C 279.913 90.758,279.765 91.301,279.585 91.406 C 279.051 91.719,274.934 90.521,274.761 90.003 C 274.659 89.697,274.340 89.667,273.868 89.919 C 271.947 90.948,269.534 88.690,270.994 87.231 C 271.391 86.833,273.968 87.703,274.491 88.411 M228.275 87.611 C 229.058 87.821,229.258 88.187,229.258 89.410 L 229.258 90.945 227.458 90.703 C 225.234 90.405,224.700 89.904,225.062 88.460 C 225.354 87.295,226.231 87.064,228.275 87.611 M256.004 88.077 C 256.184 88.178,256.332 88.850,256.332 89.571 C 256.332 91.346,252.729 91.378,252.477 89.605 C 252.209 87.710,253.981 86.942,256.004 88.077 M208.624 88.048 C 210.960 88.674,209.228 91.101,206.773 90.641 C 205.431 90.389,205.240 90.193,205.240 89.063 C 205.240 87.696,206.216 87.403,208.624 88.048 M232.533 89.083 C 232.938 90.360,232.367 91.777,231.513 91.615 C 230.350 91.395,230.231 88.210,231.385 88.210 C 231.872 88.210,232.378 88.594,232.533 89.083 M259.608 88.647 C 261.355 89.311,261.016 91.432,259.133 91.616 C 257.369 91.788,256.600 90.894,257.185 89.354 C 257.667 88.087,257.932 88.010,259.608 88.647 M213.440 89.326 C 215.608 90.845,214.259 92.590,211.596 91.711 C 209.747 91.101,209.601 90.900,210.081 89.629 C 210.522 88.462,212.014 88.328,213.440 89.326 M264.793 89.955 C 265.753 90.893,264.652 92.576,263.078 92.576 C 261.311 92.576,260.902 91.937,261.561 90.204 C 262.024 88.985,263.669 88.858,264.793 89.955 M217.413 89.793 C 218.565 90.023,218.777 90.263,218.777 91.335 C 218.777 93.742,215.168 93.343,214.929 90.910 C 214.781 89.407,214.997 89.309,217.413 89.793 M269.214 91.971 C 269.214 93.084,269.041 93.248,267.739 93.372 C 265.937 93.545,265.304 92.988,265.665 91.549 C 266.187 89.472,269.214 89.833,269.214 91.971 M222.380 90.853 C 224.110 91.333,224.296 91.677,223.565 93.042 C 222.653 94.747,219.651 93.876,219.651 91.907 C 219.651 90.305,219.968 90.183,222.380 90.853 M250.987 91.420 C 251.799 91.922,250.927 94.529,249.897 94.678 C 247.866 94.972,246.044 92.093,247.402 90.735 C 247.659 90.477,250.268 90.976,250.987 91.420 M227.620 91.889 C 228.602 92.108,228.821 92.394,228.821 93.458 C 228.821 94.800,227.161 95.268,225.145 94.495 C 223.915 94.023,224.452 91.095,225.707 91.431 C 226.099 91.536,226.960 91.742,227.620 91.889 M273.799 92.130 C 273.799 93.158,271.897 94.525,270.964 94.167 C 269.330 93.539,270.183 91.266,272.052 91.266 C 273.501 91.266,273.799 91.414,273.799 92.130 M208.043 91.968 C 208.864 92.283,208.981 94.556,208.200 95.038 C 206.390 96.156,204.162 94.938,204.576 93.056 C 204.880 91.671,206.194 91.259,208.043 91.968 M254.948 92.085 C 255.278 92.294,255.466 92.998,255.384 93.716 C 255.188 95.439,252.279 95.655,252.040 93.964 C 251.752 91.936,253.218 90.988,254.948 92.085 M277.850 92.166 C 280.045 92.775,279.510 93.450,276.830 93.450 C 274.353 93.450,273.673 92.079,275.983 91.740 C 276.103 91.722,276.943 91.914,277.850 92.166 M104.367 94.760 L 104.367 97.380 101.965 97.380 L 99.563 97.380 99.563 94.760 L 99.563 92.140 101.965 92.140 L 104.367 92.140 104.367 94.760 M119.651 94.760 L 119.651 97.380 117.249 97.380 L 114.847 97.380 114.847 94.760 L 114.847 92.140 117.249 92.140 L 119.651 92.140 119.651 94.760 M213.080 93.207 C 214.036 94.359,213.465 95.837,212.009 95.980 C 210.028 96.174,209.007 95.246,209.570 93.764 C 210.083 92.415,212.151 92.087,213.080 93.207 M231.992 93.122 C 232.364 94.100,231.496 95.708,230.679 95.553 C 229.338 95.299,229.368 92.576,230.712 92.576 C 231.302 92.576,231.878 92.822,231.992 93.122 M259.279 92.852 C 260.599 93.205,260.525 94.245,259.142 94.771 C 257.068 95.559,256.332 95.327,256.332 93.886 C 256.332 92.499,257.038 92.251,259.279 92.852 M217.634 94.013 C 218.597 94.718,218.185 96.946,217.092 96.937 C 215.229 96.922,214.410 96.397,214.410 95.218 C 214.410 93.360,215.952 92.783,217.634 94.013 M263.946 93.841 C 264.222 94.288,263.208 94.760,261.973 94.760 C 261.512 94.760,261.135 94.465,261.135 94.105 C 261.135 93.382,263.523 93.158,263.946 93.841 M223.107 95.437 C 224.087 96.372,222.939 97.380,220.894 97.380 C 218.975 97.380,218.426 96.669,219.211 95.203 C 219.767 94.163,221.906 94.291,223.107 95.437 M228.057 96.059 C 229.385 96.102,228.242 98.253,226.892 98.253 C 224.764 98.253,224.017 97.863,224.017 96.751 C 224.017 95.384,224.281 95.248,226.114 95.674 C 227.002 95.880,227.877 96.054,228.057 96.059 M207.636 96.781 C 208.027 97.172,208.238 97.778,208.104 98.127 C 207.970 98.476,207.860 98.953,207.860 99.187 C 207.860 100.202,204.153 99.379,204.005 98.331 C 203.690 96.112,205.987 95.132,207.636 96.781 M231.441 96.893 C 231.441 97.379,229.258 98.836,228.966 98.544 C 228.847 98.425,228.970 97.918,229.238 97.417 C 229.712 96.531,231.441 96.120,231.441 96.893 M212.445 98.690 C 212.445 100.664,209.083 101.140,208.808 99.204 C 208.552 97.395,209.025 96.879,210.804 97.026 C 212.363 97.155,212.445 97.238,212.445 98.690 M216.375 97.816 C 217.786 98.353,217.844 100.972,216.450 101.236 C 214.595 101.588,213.537 100.924,213.537 99.409 C 213.537 97.282,214.115 96.957,216.375 97.816 M249.345 97.641 C 249.345 97.784,248.373 98.776,247.185 99.844 C 244.907 101.892,244.095 103.384,244.965 103.922 C 245.771 104.420,244.767 109.207,243.664 110.119 C 243.140 110.553,241.591 110.961,239.841 111.125 C 233.838 111.687,234.075 111.544,231.875 115.939 C 229.696 120.291,227.435 121.965,228.137 118.707 C 228.310 117.905,228.613 116.070,228.810 114.629 C 230.984 98.757,230.900 98.829,248.581 97.440 C 249.001 97.407,249.345 97.497,249.345 97.641 M221.258 98.521 C 222.359 98.816,222.839 99.772,222.470 100.935 C 222.031 102.316,218.341 102.098,218.341 100.691 C 218.341 98.400,218.994 97.914,221.258 98.521 M226.747 99.557 C 227.770 99.565,227.715 100.669,226.638 101.747 C 225.597 102.787,223.660 102.897,223.291 101.937 C 222.815 100.696,223.919 98.998,225.012 99.291 C 225.546 99.434,226.326 99.554,226.747 99.557 M215.066 102.239 C 226.287 103.846,225.823 103.612,224.028 106.751 C 221.950 110.383,222.037 110.355,211.463 110.709 L 202.183 111.019 202.187 109.330 C 202.190 107.658,202.903 102.470,203.273 101.419 C 203.546 100.647,204.313 100.700,215.066 102.239 M310.599 102.278 C 309.138 104.103,309.783 108.021,311.505 107.776 C 312.832 107.587,313.533 104.738,312.642 103.158 C 311.882 101.811,311.207 101.520,310.599 102.278 M182.533 105.913 C 182.533 106.043,182.145 106.681,181.670 107.332 C 181.196 107.983,179.914 111.070,178.821 114.192 C 175.516 123.635,174.710 124.827,175.350 119.323 C 175.981 113.897,176.125 114.237,173.252 114.363 C 170.034 114.505,169.809 113.985,171.515 110.341 C 172.715 107.776,172.955 107.531,174.725 107.055 C 179.224 105.845,182.533 105.361,182.533 105.913 M190.939 106.844 C 191.741 107.320,191.240 110.110,190.175 111.097 C 189.574 111.654,189.083 112.228,189.083 112.373 C 189.083 112.724,179.186 136.901,178.574 138.045 C 177.916 139.275,177.606 138.809,178.143 137.397 C 178.743 135.818,177.930 135.900,177.102 137.502 C 176.376 138.904,175.639 139.301,173.763 139.301 C 171.965 139.301,171.868 139.639,178.166 123.984 C 181.288 116.222,183.843 109.386,183.843 108.791 C 183.843 106.457,188.250 105.248,190.939 106.844 M271.802 106.448 C 270.442 107.379,271.156 110.045,272.616 109.484 C 273.828 109.019,274.328 107.578,273.549 106.799 C 272.787 106.037,272.489 105.977,271.802 106.448 M118.559 108.507 C 133.114 110.136,149.476 113.476,164.974 117.981 L 171.214 119.795 171.088 122.874 L 170.961 125.953 169.432 126.343 C 161.861 128.277,159.995 129.196,156.800 132.560 C 155.101 134.348,153.712 135.999,153.712 136.229 C 153.712 136.459,153.270 137.059,152.729 137.562 C 151.817 138.412,151.736 138.914,151.594 144.619 L 151.442 150.760 149.946 152.782 C 145.097 159.335,145.654 159.064,129.657 162.644 C 122.592 164.225,109.738 167.269,101.092 169.409 L 85.371 173.299 83.391 171.366 C 77.195 165.316,57.756 175.927,49.471 189.880 L 48.350 191.769 49.811 193.810 C 53.946 199.587,55.053 201.454,54.606 201.900 C 53.501 203.006,54.769 206.937,57.128 209.716 C 58.186 210.962,58.377 210.645,58.636 207.215 C 58.824 204.727,59.273 203.091,60.525 200.338 C 61.720 197.709,62.149 196.195,62.102 194.779 C 61.962 190.570,71.084 183.720,81.223 180.420 C 86.978 178.547,113.226 171.568,132.314 166.837 C 154.203 161.411,151.731 162.383,154.660 158.050 C 158.393 152.528,159.894 151.717,162.168 153.990 C 163.953 155.776,163.607 157.008,159.611 163.075 C 156.810 167.329,156.229 167.723,150.233 169.424 C 146.122 170.590,146.067 170.623,145.852 172.093 C 145.646 173.491,145.515 173.594,143.668 173.799 C 141.758 174.011,141.699 174.064,141.568 175.653 C 141.352 178.254,138.420 178.624,137.794 176.129 C 137.293 174.133,136.758 173.799,134.054 173.799 C 130.980 173.799,130.688 174.273,131.888 177.318 C 132.952 180.017,132.956 179.913,131.777 179.913 C 131.241 179.913,129.773 180.340,128.514 180.861 C 125.807 181.983,124.017 181.558,124.017 179.791 C 124.017 178.252,123.188 177.729,120.764 177.736 C 117.495 177.746,117.146 178.096,117.855 180.653 C 118.726 183.798,118.694 183.976,117.201 184.293 C 116.454 184.451,115.379 184.906,114.811 185.303 C 112.832 186.690,110.044 185.848,110.044 183.865 C 110.044 182.596,109.026 182.091,105.877 181.796 L 102.919 181.520 103.266 183.664 C 104.005 188.238,104.062 188.116,100.655 189.314 C 96.324 190.838,95.781 190.769,95.137 188.621 C 94.504 186.508,93.794 186.060,90.868 185.933 C 87.915 185.804,87.531 186.254,88.202 189.053 C 88.896 191.943,88.665 192.409,86.374 192.752 C 83.762 193.144,81.731 194.483,80.964 196.317 C 80.101 198.382,79.465 198.530,76.289 197.401 C 74.799 196.872,73.244 196.335,72.833 196.208 C 72.139 195.993,66.812 200.505,66.812 201.307 C 66.812 201.473,67.573 201.836,68.503 202.115 C 72.841 203.415,75.576 206.918,73.596 208.639 C 72.526 209.569,72.524 209.588,73.241 211.522 C 73.921 213.356,73.917 213.571,73.172 215.222 C 71.811 218.241,73.057 222.704,75.082 222.061 C 76.000 221.770,77.293 219.774,77.293 218.648 C 77.293 217.724,78.707 216.638,80.338 216.312 L 81.797 216.021 81.522 218.028 C 81.197 220.398,81.738 220.762,84.883 220.291 C 86.537 220.042,86.841 219.833,87.048 218.797 C 87.324 217.420,88.101 217.054,93.013 215.985 C 97.335 215.045,97.324 215.043,98.070 216.828 C 98.834 218.658,100.236 219.307,103.030 219.125 L 105.022 218.996 104.873 217.467 C 104.451 213.127,104.308 213.413,107.424 212.352 C 111.506 210.961,112.351 211.036,113.225 212.871 C 114.035 214.568,115.043 214.974,117.939 214.767 C 119.579 214.650,119.852 214.498,119.753 213.755 C 119.690 213.275,119.519 211.892,119.374 210.682 L 119.111 208.481 122.424 207.700 C 126.198 206.810,126.385 206.862,127.091 209.004 L 127.609 210.572 130.507 210.265 C 134.084 209.886,133.952 210.038,132.995 207.377 C 132.023 204.673,132.234 204.385,136.158 203.077 C 139.301 202.028,139.492 202.080,140.177 204.155 C 141.129 207.041,146.657 206.251,146.105 203.308 C 145.826 201.821,145.893 201.687,147.135 201.254 C 147.866 200.999,148.711 200.287,149.013 199.670 C 149.829 198.008,151.507 196.953,154.773 196.047 L 157.695 195.237 158.562 196.706 C 160.705 200.339,164.851 198.892,163.734 194.902 C 163.059 192.490,163.550 191.918,166.700 191.446 C 168.474 191.180,168.741 191.262,169.600 192.339 C 170.264 193.172,171.180 193.644,172.668 193.922 C 173.835 194.140,175.991 195.068,177.460 195.985 C 182.945 199.406,190.780 201.820,200.251 203.008 C 206.516 203.793,208.663 202.548,211.045 196.748 C 212.691 192.740,212.603 192.188,209.716 188.397 C 204.497 181.542,204.384 181.251,206.515 180.149 C 207.326 179.730,208.225 178.599,208.990 177.036 L 210.191 174.581 213.938 174.870 C 219.828 175.323,224.364 175.899,228.384 176.705 L 232.096 177.449 233.130 179.592 C 234.642 182.724,239.514 187.594,241.703 188.160 C 244.764 188.953,251.130 189.955,253.441 190.008 C 254.671 190.036,256.266 190.192,256.987 190.355 L 258.297 190.650 256.996 190.992 C 244.558 194.259,206.737 209.969,183.174 221.654 L 172.244 227.074 114.770 227.074 L 57.296 227.074 55.491 221.989 C 44.260 190.341,43.355 156.166,52.913 124.690 C 54.320 120.059,54.437 119.850,56.534 118.266 C 68.241 109.424,92.561 105.598,118.559 108.507 M225.989 116.969 C 225.598 120.485,225.090 125.131,224.860 127.293 C 224.359 131.992,224.355 132.010,222.589 136.572 C 221.149 140.291,220.210 141.329,220.714 138.646 C 221.089 136.643,220.748 136.713,219.651 138.865 C 218.762 140.606,218.752 140.611,216.167 140.611 L 213.574 140.611 216.348 132.642 C 221.727 117.189,224.552 109.814,225.481 108.802 L 226.419 107.778 226.560 109.177 C 226.637 109.947,226.380 113.453,225.989 116.969 M214.410 125.702 C 214.410 125.908,212.444 126.605,210.041 127.251 C 203.519 129.003,202.444 129.448,196.578 132.824 C 187.396 138.108,186.306 137.774,189.204 130.568 L 191.048 125.983 194.760 125.736 C 200.946 125.326,214.410 125.303,214.410 125.702 M307.860 129.904 C 307.860 130.019,307.076 131.149,306.117 132.415 C 299.456 141.205,299.145 159.810,305.492 169.732 C 307.190 172.387,307.199 172.934,305.523 171.836 C 298.197 167.036,295.761 147.954,301.067 136.923 C 302.930 133.049,307.860 127.955,307.860 129.904 M258.952 131.263 C 258.952 131.406,257.889 132.697,256.590 134.133 C 247.808 143.837,245.239 162.819,250.825 176.731 C 252.466 180.817,252.328 181.122,250.003 178.548 C 241.580 169.225,243.943 142.021,253.881 133.912 C 256.402 131.856,258.952 130.523,258.952 131.263 M317.223 139.847 C 325.089 147.737,319.290 171.415,311.251 164.227 L 309.825 162.952 311.672 161.246 C 316.393 156.885,316.429 147.536,311.742 142.849 C 309.728 140.835,309.852 140.163,312.445 139.033 C 314.544 138.118,315.695 138.314,317.223 139.847 M273.799 141.725 C 282.131 145.959,282.079 166.843,273.722 172.373 C 271.402 173.909,268.372 174.167,266.125 173.020 C 262.350 171.094,261.879 168.996,265.221 168.996 C 266.673 168.996,267.673 168.645,269.264 167.576 C 277.868 161.800,274.394 144.057,264.971 145.649 C 263.319 145.928,263.262 145.900,263.725 145.034 C 265.540 141.644,270.459 140.028,273.799 141.725 M188.210 142.360 C 193.373 142.597,202.386 142.978,208.237 143.206 C 214.088 143.434,218.974 143.720,219.095 143.840 C 219.354 144.099,217.787 147.319,215.502 151.227 L 213.871 154.015 206.298 154.289 C 201.075 154.477,196.698 154.368,192.188 153.935 C 182.731 153.027,182.283 152.874,177.729 149.000 C 176.168 147.672,173.859 146.111,172.598 145.531 C 171.337 144.952,170.306 144.403,170.306 144.312 C 170.306 141.700,171.342 141.587,188.210 142.360 M311.768 147.675 C 314.364 150.461,313.021 156.769,309.832 156.769 C 307.043 156.769,305.475 153.636,306.519 150.151 C 307.498 146.883,309.952 145.725,311.768 147.675 M267.510 152.983 C 270.726 155.749,268.337 163.841,264.651 162.671 C 261.276 161.600,261.260 154.207,264.629 152.523 C 266.082 151.797,266.143 151.807,267.510 152.983 M287.608 175.098 C 289.399 176.670,292.354 177.576,298.086 178.310 C 302.212 178.838,302.315 178.877,300.444 179.190 C 298.042 179.593,285.148 182.653,281.108 183.779 L 278.154 184.602 279.625 182.803 C 280.435 181.814,281.743 179.825,282.534 178.384 C 285.466 173.039,285.349 173.114,287.608 175.098 M162.316 176.528 C 167.433 179.989,166.443 186.808,160.476 189.207 C 145.437 195.255,89.290 212.901,86.311 212.516 C 81.432 211.885,78.793 203.651,82.428 200.403 C 83.883 199.103,107.816 190.971,140.611 180.633 C 157.995 175.154,159.783 174.815,162.316 176.528 M354.266 177.298 C 354.496 177.570,353.926 184.620,353.257 189.791 L 352.741 193.774 347.222 194.068 C 312.489 195.918,273.157 205.855,229.421 223.830 L 221.505 227.083 200.600 226.969 L 179.694 226.856 187.118 223.200 C 246.670 193.869,307.062 176.519,347.895 177.010 C 351.300 177.051,354.167 177.181,354.266 177.298 M351.759 199.017 C 351.340 201.865,348.095 214.537,347.700 214.868 C 347.524 215.015,343.522 215.668,338.807 216.319 C 325.191 218.197,308.765 221.716,294.761 225.753 L 290.177 227.074 260.045 227.055 L 229.913 227.036 234.716 225.073 C 274.368 208.868,316.684 198.411,347.380 197.232 C 349.061 197.167,350.803 197.076,351.250 197.029 C 351.979 196.952,352.032 197.159,351.759 199.017 M85.064 205.568 C 83.569 207.296,84.139 210.044,85.992 210.044 C 88.200 210.044,89.989 206.757,88.559 205.328 C 87.787 204.555,85.823 204.690,85.064 205.568 M95.443 206.170 C 94.485 206.923,93.893 208.297,94.527 208.297 C 95.240 208.297,97.817 206.731,97.817 206.298 C 97.817 205.341,96.581 205.274,95.443 206.170 M345.190 222.598 C 344.353 224.940,343.668 226.905,343.668 226.965 C 343.668 227.025,334.383 227.057,323.035 227.035 C 299.793 226.991,300.429 227.207,314.192 224.028 C 324.380 221.675,340.042 218.912,346.173 218.387 C 346.526 218.357,346.186 219.813,345.190 222.598 M371.913 236.354 C 371.102 237.615,366.751 244.295,362.245 251.198 C 357.739 258.101,354.150 264.003,354.269 264.312 C 354.387 264.622,358.725 271.304,363.908 279.162 L 373.331 293.450 200.428 293.450 L 27.526 293.450 30.653 288.537 C 32.372 285.835,36.602 279.203,40.052 273.799 C 43.502 268.395,46.247 263.679,46.152 263.319 C 46.057 262.959,41.731 256.228,36.539 248.362 L 27.099 234.061 200.244 234.061 L 373.389 234.061 371.913 236.354 M94.068 244.263 C 93.942 244.590,93.899 246.015,93.972 247.429 L 94.105 250.000 97.266 250.128 L 100.426 250.256 100.541 266.940 L 100.655 283.624 103.930 283.624 L 107.205 283.624 107.320 266.921 L 107.434 250.218 110.704 250.218 L 113.974 250.218 113.974 246.943 L 113.974 243.668 104.135 243.668 C 96.235 243.668,94.251 243.785,94.068 244.263 M120.287 244.214 C 120.172 244.514,120.129 253.504,120.192 264.192 L 120.306 283.624 123.581 283.624 L 126.856 283.624 126.976 276.965 L 127.097 270.306 128.763 270.306 L 130.428 270.306 132.158 276.965 L 133.888 283.624 137.250 283.752 C 139.099 283.822,140.611 283.718,140.611 283.520 C 140.611 283.322,139.849 280.195,138.918 276.572 L 137.225 269.984 138.520 268.761 C 140.476 266.915,140.611 266.142,140.611 256.805 C 140.611 247.073,140.321 246.047,137.109 244.433 C 135.176 243.462,120.648 243.273,120.287 244.214 M148.035 263.755 L 148.035 283.843 157.814 283.843 C 168.749 283.843,168.122 284.042,168.122 280.568 C 168.122 277.179,168.366 277.293,161.089 277.293 L 154.585 277.293 154.585 272.271 L 154.585 267.249 159.301 267.249 C 164.839 267.249,165.066 267.111,165.066 263.755 C 165.066 260.400,164.839 260.262,159.301 260.262 L 154.585 260.262 154.585 255.240 L 154.585 250.218 161.089 250.218 C 168.366 250.218,168.122 250.332,168.122 246.943 C 168.122 243.469,168.749 243.668,157.814 243.668 L 148.035 243.668 148.035 263.755 M175.109 263.755 L 175.109 283.843 178.384 283.843 L 181.659 283.843 181.659 272.838 C 181.659 266.786,181.826 262.021,182.029 262.249 C 182.233 262.477,183.731 266.397,185.359 270.961 C 186.988 275.524,188.705 280.298,189.176 281.569 L 190.033 283.880 193.161 283.752 L 196.288 283.624 196.288 263.755 L 196.288 243.886 193.013 243.886 L 189.738 243.886 189.520 254.746 L 189.301 265.606 186.054 256.493 C 184.268 251.481,182.458 246.545,182.030 245.524 L 181.254 243.668 178.181 243.668 L 175.109 243.668 175.109 263.755 M207.125 244.494 C 203.717 246.084,203.712 246.115,203.712 263.755 C 203.712 284.112,203.704 284.098,214.433 283.778 C 222.198 283.547,223.686 282.049,223.479 274.672 L 223.362 270.524 220.306 270.524 L 217.249 270.524 217.124 273.362 C 216.966 276.965,213.262 279.026,211.004 276.769 C 209.985 275.749,210.286 251.226,211.325 250.670 C 214.507 248.967,216.961 250.439,217.124 254.148 L 217.249 256.987 220.415 257.115 L 223.581 257.244 223.580 252.967 C 223.579 248.195,222.961 246.362,220.820 244.791 C 218.984 243.444,209.803 243.245,207.125 244.494 M231.004 263.755 L 231.004 283.843 234.279 283.843 L 237.555 283.843 237.555 275.546 L 237.555 267.249 240.820 267.249 L 244.086 267.249 244.204 275.437 L 244.323 283.624 247.598 283.624 L 250.873 283.624 250.873 263.755 L 250.873 243.886 247.598 243.886 L 244.323 243.886 244.204 252.074 L 244.086 260.262 240.820 260.262 L 237.555 260.262 237.555 251.965 L 237.555 243.668 234.279 243.668 L 231.004 243.668 231.004 263.755 M272.926 263.755 L 272.926 283.843 276.201 283.843 L 279.476 283.843 279.476 263.755 L 279.476 243.668 276.201 243.668 L 272.926 243.668 272.926 263.755 M285.771 244.263 C 285.645 244.590,285.602 246.015,285.675 247.429 L 285.808 250.000 288.969 250.128 L 292.129 250.256 292.244 266.940 L 292.358 283.624 295.742 283.752 L 299.127 283.880 299.127 267.049 L 299.127 250.218 302.402 250.218 L 305.677 250.218 305.677 246.943 L 305.677 243.668 295.838 243.668 C 287.938 243.668,285.954 243.785,285.771 244.263 M133.263 250.941 C 133.951 251.564,134.061 252.381,134.061 256.865 C 134.061 263.613,133.979 263.755,130.116 263.755 L 127.074 263.755 127.074 256.987 L 127.074 250.218 129.769 250.218 C 131.664 250.218,132.701 250.433,133.263 250.941 M319.738 259.913 C 319.450 260.201,319.214 260.889,319.214 261.441 C 319.214 262.751,320.760 262.822,321.099 261.528 C 321.398 260.383,322.271 260.848,322.271 262.154 C 322.271 262.810,321.781 263.384,320.742 263.943 C 319.357 264.690,319.214 264.943,319.214 266.663 L 319.214 268.559 321.616 268.559 C 323.886 268.559,324.017 268.499,324.017 267.467 C 324.017 266.319,322.519 265.850,322.172 266.890 C 322.078 267.172,321.767 267.259,321.481 267.082 C 320.518 266.487,320.950 265.493,322.489 264.759 C 325.208 263.463,324.546 259.389,321.616 259.389 C 320.871 259.389,320.026 259.624,319.738 259.913 M327.365 259.680 C 326.694 260.351,327.050 268.019,327.765 268.294 C 330.717 269.427,331.878 268.208,331.878 263.974 C 331.878 260.182,331.434 259.389,329.315 259.389 C 328.403 259.389,327.525 259.520,327.365 259.680 M335.226 259.680 C 335.066 259.840,334.934 260.528,334.934 261.208 C 334.934 262.671,336.021 262.909,336.383 261.526 C 336.682 260.381,337.725 260.657,337.912 261.931 C 338.015 262.627,337.640 263.119,336.493 263.796 C 335.081 264.628,334.934 264.896,334.934 266.637 L 334.934 268.559 337.118 268.559 C 339.156 268.559,339.301 268.486,339.301 267.467 C 339.301 266.325,338.512 266.030,337.680 266.862 C 337.127 267.414,336.245 267.026,336.245 266.231 C 336.245 265.939,336.932 265.330,337.773 264.878 C 339.518 263.938,340.113 260.230,338.611 259.654 C 337.688 259.300,335.589 259.316,335.226 259.680 M343.341 259.697 C 342.389 259.880,341.913 261.135,342.795 261.135 C 343.052 261.135,343.231 262.664,343.231 264.847 C 343.231 268.268,343.300 268.559,344.105 268.559 C 344.923 268.559,344.978 268.268,344.978 263.974 C 344.978 261.452,344.831 259.415,344.651 259.448 C 344.471 259.481,343.881 259.593,343.341 259.697 M53.712 264.410 L 53.712 269.041 55.970 268.909 C 58.611 268.755,59.532 267.686,57.023 267.686 C 55.576 267.686,55.459 267.587,55.459 266.376 C 55.459 265.269,55.628 265.066,56.550 265.066 C 57.230 265.066,57.642 264.818,57.642 264.410 C 57.642 264.003,57.230 263.755,56.550 263.755 C 55.628 263.755,55.459 263.552,55.459 262.445 C 55.459 261.234,55.576 261.135,57.023 261.135 C 59.532 261.135,58.611 260.066,55.970 259.912 L 53.712 259.780 53.712 264.410 M61.426 260.116 C 60.318 261.225,61.171 264.573,62.689 265.074 C 63.890 265.470,64.212 265.791,64.108 266.493 C 63.924 267.735,62.879 267.986,62.584 266.858 C 62.180 265.312,61.059 265.722,61.217 267.358 C 61.349 268.729,61.421 268.777,63.319 268.777 L 65.284 268.777 65.413 266.554 C 65.540 264.374,65.515 264.322,64.103 263.917 C 62.994 263.599,62.664 263.266,62.664 262.465 C 62.664 261.137,63.736 260.749,64.054 261.963 C 64.186 262.468,64.566 262.882,64.898 262.882 C 65.761 262.882,65.685 260.426,64.811 260.090 C 63.889 259.737,61.790 259.753,61.426 260.116 M68.122 260.429 C 68.122 260.762,68.515 261.136,68.996 261.262 C 69.784 261.468,69.869 261.858,69.869 265.243 C 69.869 268.288,69.993 268.996,70.524 268.996 C 71.055 268.996,71.179 268.288,71.179 265.243 C 71.179 261.858,71.265 261.468,72.052 261.262 C 73.975 260.759,72.982 259.825,70.524 259.825 C 68.770 259.825,68.122 259.988,68.122 260.429 M330.131 263.974 C 330.131 266.594,330.000 267.249,329.476 267.249 C 328.952 267.249,328.821 266.594,328.821 263.974 C 328.821 261.354,328.952 260.699,329.476 260.699 C 330.000 260.699,330.131 261.354,330.131 263.974 M74.672 268.373 C 74.672 268.779,74.970 269.002,75.400 268.918 C 76.496 268.706,76.646 267.686,75.582 267.686 C 75.046 267.686,74.672 267.968,74.672 268.373 M280.983 300.834 C 280.754 301.052,278.226 302.536,275.364 304.131 C 231.087 328.806,177.207 330.085,132.096 307.532 C 126.294 304.632,119.651 300.940,119.651 300.617 C 119.651 300.518,156.044 300.437,200.524 300.437 C 249.057 300.437,281.231 300.595,280.983 300.834 " stroke="none" fill="#1e4356" fill-rule="evenodd"></path></g></svg>