<svg id="svg" xmlns="http://www.w3.org/2000/svg" xmlns:xlink="http://www.w3.org/1999/xlink" width="400" height="83.46636259977194" viewBox="0, 0, 400,83.46636259977194"><g id="svgg"><path id="path0" d="M5.130 6.499 C 6.240 8.067,12.217 16.692,18.413 25.665 L 29.678 41.980 16.535 61.013 L 3.392 80.046 101.847 80.161 C 155.998 80.224,244.480 80.224,298.475 80.161 L 396.647 80.046 383.496 61.011 L 370.345 41.976 381.131 26.347 C 387.063 17.751,393.032 9.128,394.394 7.184 L 396.870 3.649 199.991 3.649 L 3.113 3.649 5.130 6.499 M379.330 13.341 C 378.482 14.658,373.938 21.635,369.232 28.845 C 364.526 36.056,360.777 42.219,360.901 42.543 C 361.025 42.866,365.555 49.846,370.968 58.053 L 380.811 72.976 200.219 72.976 L 19.628 72.976 22.894 67.845 C 24.690 65.023,29.108 58.096,32.711 52.452 C 36.315 46.807,39.182 41.881,39.083 41.505 C 38.983 41.129,34.465 34.099,29.042 25.884 L 19.183 10.946 200.027 10.946 L 380.872 10.946 379.330 13.341 M89.129 21.602 C 88.998 21.943,88.953 23.431,89.029 24.909 L 89.168 27.594 92.469 27.728 L 95.770 27.862 95.890 45.288 L 96.009 62.714 99.430 62.714 L 102.851 62.714 102.970 45.268 L 103.090 27.822 106.505 27.822 L 109.920 27.822 109.920 24.401 L 109.920 20.981 99.644 20.981 C 91.393 20.981,89.320 21.103,89.129 21.602 M116.514 21.551 C 116.394 21.864,116.349 31.254,116.415 42.417 L 116.534 62.714 119.954 62.714 L 123.375 62.714 123.501 55.758 L 123.627 48.803 125.367 48.803 L 127.106 48.803 128.913 55.758 L 130.720 62.714 134.231 62.847 C 136.162 62.920,137.742 62.811,137.742 62.604 C 137.742 62.398,136.946 59.132,135.974 55.348 L 134.205 48.467 135.558 47.189 C 137.601 45.261,137.742 44.454,137.742 34.701 C 137.742 24.537,137.439 23.465,134.084 21.780 C 132.065 20.765,116.891 20.568,116.514 21.551 M145.496 41.961 L 145.496 62.942 155.709 62.942 C 167.131 62.942,166.477 63.150,166.477 59.521 C 166.477 55.982,166.731 56.100,159.130 56.100 L 152.338 56.100 152.338 50.855 L 152.338 45.610 157.263 45.610 C 163.047 45.610,163.284 45.466,163.284 41.961 C 163.284 38.456,163.047 38.312,157.263 38.312 L 152.338 38.312 152.338 33.067 L 152.338 27.822 159.130 27.822 C 166.731 27.822,166.477 27.941,166.477 24.401 C 166.477 20.773,167.131 20.981,155.709 20.981 L 145.496 20.981 145.496 41.961 M173.774 41.961 L 173.774 62.942 177.195 62.942 L 180.616 62.942 180.616 51.448 C 180.616 45.127,180.790 40.149,181.002 40.388 C 181.215 40.626,182.780 44.721,184.480 49.487 C 186.181 54.253,187.975 59.239,188.467 60.566 L 189.362 62.980 192.628 62.847 L 195.895 62.714 195.895 41.961 L 195.895 21.209 192.474 21.209 L 189.054 21.209 188.826 32.551 L 188.597 43.894 185.206 34.376 C 183.341 29.141,181.450 23.985,181.003 22.919 L 180.192 20.981 176.983 20.981 L 173.774 20.981 173.774 41.961 M207.214 21.843 C 203.655 23.504,203.649 23.536,203.649 41.961 C 203.649 63.223,203.641 63.208,214.847 62.874 C 222.957 62.633,224.511 61.068,224.295 53.364 L 224.173 49.031 220.981 49.031 L 217.788 49.031 217.658 51.995 C 217.492 55.758,213.624 57.911,211.266 55.553 C 210.201 54.488,210.515 28.875,211.601 28.294 C 214.924 26.515,217.488 28.053,217.658 31.927 L 217.788 34.892 221.095 35.026 L 224.401 35.160 224.401 30.693 C 224.400 25.708,223.754 23.794,221.518 22.153 C 219.600 20.746,210.011 20.538,207.214 21.843 M232.155 41.961 L 232.155 62.942 235.576 62.942 L 238.997 62.942 238.997 54.276 L 238.997 45.610 242.407 45.610 L 245.818 45.610 245.942 54.162 L 246.066 62.714 249.487 62.714 L 252.908 62.714 252.908 41.961 L 252.908 21.209 249.487 21.209 L 246.066 21.209 245.942 29.761 L 245.818 38.312 242.407 38.312 L 238.997 38.312 238.997 29.647 L 238.997 20.981 235.576 20.981 L 232.155 20.981 232.155 41.961 M275.941 41.961 L 275.941 62.942 279.361 62.942 L 282.782 62.942 282.782 41.961 L 282.782 20.981 279.361 20.981 L 275.941 20.981 275.941 41.961 M289.357 21.602 C 289.226 21.943,289.181 23.431,289.257 24.909 L 289.396 27.594 292.697 27.728 L 295.998 27.862 296.118 45.288 L 296.237 62.714 299.772 62.847 L 303.307 62.980 303.307 45.401 L 303.307 27.822 306.727 27.822 L 310.148 27.822 310.148 24.401 L 310.148 20.981 299.872 20.981 C 291.621 20.981,289.548 21.103,289.357 21.602 M130.067 28.577 C 130.786 29.228,130.901 30.081,130.901 34.764 C 130.901 41.812,130.815 41.961,126.780 41.961 L 123.603 41.961 123.603 34.892 L 123.603 27.822 126.418 27.822 C 128.397 27.822,129.480 28.046,130.067 28.577 M324.835 37.948 C 324.534 38.249,324.287 38.967,324.287 39.544 C 324.287 40.912,325.902 40.986,326.256 39.635 C 326.569 38.438,327.480 38.925,327.480 40.288 C 327.480 40.974,326.968 41.573,325.884 42.157 C 324.436 42.937,324.287 43.202,324.287 44.998 L 324.287 46.978 326.796 46.978 C 329.168 46.978,329.304 46.916,329.304 45.838 C 329.304 44.639,327.739 44.149,327.377 45.235 C 327.279 45.530,326.954 45.620,326.655 45.436 C 325.650 44.815,326.100 43.776,327.708 43.010 C 329.423 42.192,330.037 39.227,328.757 37.948 C 328.050 37.241,325.542 37.241,324.835 37.948 M332.801 37.704 C 332.100 38.406,332.472 46.415,333.219 46.701 C 336.302 47.885,337.514 46.612,337.514 42.189 C 337.514 38.229,337.051 37.400,334.838 37.400 C 333.885 37.400,332.968 37.537,332.801 37.704 M341.011 37.704 C 340.844 37.872,340.707 38.590,340.707 39.301 C 340.707 40.828,341.842 41.078,342.220 39.633 C 342.533 38.437,343.621 38.725,343.817 40.055 C 343.924 40.782,343.533 41.296,342.335 42.003 C 340.860 42.873,340.707 43.153,340.707 44.971 L 340.707 46.978 342.987 46.978 C 345.116 46.978,345.268 46.902,345.268 45.838 C 345.268 44.645,344.443 44.337,343.575 45.205 C 342.997 45.783,342.075 45.377,342.075 44.547 C 342.075 44.242,342.794 43.606,343.672 43.133 C 345.495 42.152,346.115 38.279,344.547 37.677 C 343.583 37.307,341.391 37.324,341.011 37.704 M349.487 37.722 C 348.493 37.914,347.996 39.225,348.917 39.225 C 349.185 39.225,349.373 40.821,349.373 43.101 C 349.373 46.674,349.444 46.978,350.285 46.978 C 351.139 46.978,351.197 46.674,351.197 42.189 C 351.197 39.555,351.043 37.428,350.855 37.462 C 350.667 37.497,350.051 37.613,349.487 37.722 M46.978 42.645 L 46.978 47.482 49.337 47.344 C 52.096 47.183,53.057 46.066,50.437 46.066 C 48.925 46.066,48.803 45.964,48.803 44.698 C 48.803 43.542,48.980 43.330,49.943 43.330 C 50.652 43.330,51.083 43.071,51.083 42.645 C 51.083 42.220,50.652 41.961,49.943 41.961 C 48.980 41.961,48.803 41.748,48.803 40.593 C 48.803 39.327,48.925 39.225,50.437 39.225 C 53.057 39.225,52.096 38.108,49.337 37.947 L 46.978 37.809 46.978 42.645 M55.036 38.160 C 53.879 39.318,54.769 42.815,56.354 43.338 C 57.610 43.752,57.945 44.088,57.837 44.820 C 57.645 46.118,56.553 46.380,56.245 45.202 C 55.823 43.588,54.652 44.015,54.817 45.724 C 54.955 47.156,55.030 47.206,57.013 47.206 L 59.065 47.206 59.200 44.884 C 59.333 42.607,59.306 42.553,57.832 42.130 C 56.673 41.798,56.328 41.450,56.328 40.614 C 56.328 39.226,57.449 38.821,57.780 40.089 C 57.918 40.617,58.315 41.049,58.662 41.049 C 59.564 41.049,59.484 38.483,58.572 38.133 C 57.608 37.764,55.416 37.780,55.036 38.160 M62.030 38.487 C 62.030 38.834,62.440 39.226,62.942 39.357 C 63.765 39.572,63.854 39.979,63.854 43.515 C 63.854 46.695,63.983 47.434,64.538 47.434 C 65.093 47.434,65.222 46.695,65.222 43.515 C 65.222 39.979,65.312 39.572,66.135 39.357 C 68.143 38.832,67.106 37.856,64.538 37.856 C 62.706 37.856,62.030 38.027,62.030 38.487 M335.690 42.189 C 335.690 44.926,335.553 45.610,335.006 45.610 C 334.458 45.610,334.322 44.926,334.322 42.189 C 334.322 39.453,334.458 38.769,335.006 38.769 C 335.553 38.769,335.690 39.453,335.690 42.189 M68.871 46.784 C 68.871 47.208,69.181 47.441,69.632 47.354 C 70.776 47.132,70.933 46.066,69.821 46.066 C 69.261 46.066,68.871 46.361,68.871 46.784 " stroke="none" fill="#FFFFFF" fill-rule="evenodd"></path></g></svg>